<svg width="239" height="240" viewBox="0 0 239 240" fill="none" xmlns="http://www.w3.org/2000/svg">
<circle cx="119.415" cy="119.501" r="119.355" fill="#161616"/>
<path d="M63.7188 185.569H58.3289V192.245L64.8553 190.837L63.7188 185.569ZM63.7188 55.845L64.8553 50.5763L58.3289 49.1684V55.845H63.7188ZM110.624 120.707C110.624 149.938 90.0463 174.375 62.5822 180.3L64.8553 190.837C97.1789 183.864 121.404 155.121 121.404 120.707H110.624ZM62.5822 61.1137C90.0463 67.0383 110.624 91.4756 110.624 120.707H121.404C121.404 86.2926 97.1789 57.5492 64.8553 50.5763L62.5822 61.1137ZM58.3289 55.845V185.569H69.1086V55.845H58.3289Z" fill="#A8A8A8"/>
<path d="M63.7178 117.139C61.7065 117.139 60.076 118.77 60.076 120.781C60.076 122.792 61.7065 124.423 63.7178 124.423V117.139ZM200.119 120.781L179.093 99.755L158.067 120.781L179.093 141.807L200.119 120.781ZM63.7178 124.423H179.093V117.139H63.7178V124.423Z" fill="#A8A8A8"/>
</svg>
