<?xml version="1.0" encoding="UTF-8"?>
<svg style="transform: scale(1.2);" stroke="currentColor" fill="currentColor" stroke-width="0" height="100%" width="100%" viewBox="0 0 664 559" xmlns="http://www.w3.org/2000/svg">
<path d="M617.53 509.63L426.828 362.239L29.18 54.9004C22.21 49.4804 20.95 39.4304 26.37 32.4504L46.01 7.18043C51.43 0.200428 61.49 -1.05957 68.47 4.37043L656.82 459.1C663.79 464.52 665.05 474.57 659.63 481.55L639.99 506.82C634.57 513.8 624.51 515.05 617.53 509.63Z" fill="black"/>
<path d="M436.793 97L449.028 215.267C497.018 237.58 535 277.817 535.001 329C535.001 342.255 524.256 353 511.001 353L426.828 362.239L236.972 215.267L249.207 97H207C193.745 97 183 86.255 183 73V25C183 11.745 193.745 1 207 1H479C492.255 1 503 11.745 503 25V73C503 86.255 492.255 97 479 97H436.793Z" fill="black"/>
<path d="M175 353C161.745 353 151 342.255 151 329C151 291.061 171.947 258.879 202.794 235.629L375.001 368.673V457.007C375.001 458.249 374.711 459.474 374.156 460.585L350.156 508.585C347.209 514.478 338.786 514.467 335.845 508.585L311.845 460.585C311.289 459.474 311 458.249 311 457.007V353H175Z" fill="black"/>
</svg>
