<svg width="278" height="70" viewBox="0 0 278 70" fill="none" xmlns="http://www.w3.org/2000/svg">
<path d="M30 46.4282V29.1431H31.9219V31.3579C32.2969 30.6782 32.8476 30.1079 33.5742 29.647C34.3008 29.186 35.0859 28.9556 35.9297 28.9556C37.3828 28.9556 38.6133 29.5415 39.6211 30.7134C40.6367 31.8853 41.1446 33.3462 41.1446 35.0962C41.1446 36.8462 40.6367 38.3071 39.6211 39.479C38.6133 40.6509 37.3828 41.2368 35.9297 41.2368C35.1015 41.2368 34.3203 41.0064 33.5859 40.5454C32.8594 40.0845 32.3047 39.4985 31.9219 38.7876V46.4282H30ZM33 31.9907C32.2813 32.8579 31.9219 33.8931 31.9219 35.0962C31.9219 36.2993 32.2813 37.3384 33 38.2134C33.7266 39.0806 34.5859 39.5142 35.5781 39.5142C36.6484 39.5142 37.5234 39.0845 38.2031 38.2251C38.8828 37.3657 39.2226 36.3228 39.2226 35.0962C39.2226 33.8696 38.8828 32.8267 38.2031 31.9673C37.5234 31.1079 36.6484 30.6782 35.5781 30.6782C34.5859 30.6782 33.7266 31.1157 33 31.9907ZM43.1601 35.0962C43.1601 33.9556 43.3828 32.9243 43.8281 32.0024C44.2734 31.0806 44.9375 30.3423 45.8205 29.7876C46.703 29.2329 47.7344 28.9556 48.9139 28.9556C50.0234 28.9556 51.0195 29.2329 51.9025 29.7876C52.793 30.3345 53.4765 31.0767 53.953 32.0142C54.4375 32.9439 54.68 33.9712 54.68 35.0962C54.68 36.2212 54.4375 37.2524 53.953 38.1899C53.4765 39.1196 52.793 39.8618 51.9025 40.4165C51.0195 40.9634 50.0234 41.2368 48.9139 41.2368C47.7814 41.2368 46.7734 40.9595 45.8904 40.4048C45.0078 39.8501 44.3321 39.1118 43.8633 38.1899C43.3946 37.2603 43.1601 36.229 43.1601 35.0962ZM46.1719 31.9556C45.4454 32.8071 45.0821 33.854 45.0821 35.0962C45.0821 36.3384 45.4454 37.3853 46.1719 38.2368C46.8984 39.0884 47.8124 39.5142 48.9139 39.5142C50.0154 39.5142 50.9299 39.0884 51.6564 38.2368C52.3904 37.3774 52.758 36.3306 52.758 35.0962C52.758 33.8618 52.3904 32.8189 51.6564 31.9673C50.9299 31.1079 50.0154 30.6782 48.9139 30.6782C47.8124 30.6782 46.8984 31.104 46.1719 31.9556ZM55.418 29.1431H57.5389L60.4099 38.5532L63.3399 29.1431H65.168L68.0974 38.5532L70.969 29.1431H73.0899L69.0585 41.0493H67.137L64.254 31.7329L61.371 41.0493H59.4495L55.418 29.1431ZM73.8399 35.0962C73.8399 33.2993 74.371 31.8267 75.4335 30.6782C76.496 29.5298 77.8749 28.9556 79.5704 28.9556C80.2499 28.9556 80.9024 29.0728 81.5274 29.3071C82.1524 29.5337 82.7224 29.8735 83.2384 30.3267C83.7619 30.772 84.1799 31.3774 84.4919 32.1431C84.8049 32.9009 84.9649 33.7642 84.9724 34.7329C84.9724 35.0142 84.9569 35.2954 84.9259 35.5767H75.7149C75.7619 36.7017 76.1405 37.6392 76.8515 38.3892C77.5705 39.1392 78.5195 39.5142 79.6995 39.5142C80.543 39.5142 81.1995 39.3071 81.668 38.8931C82.1445 38.4712 82.504 37.8462 82.746 37.0181H84.762C84.637 37.5962 84.4375 38.1314 84.164 38.6235C83.8985 39.1157 83.5585 39.561 83.1445 39.9595C82.7385 40.3579 82.2305 40.6704 81.621 40.897C81.012 41.1235 80.344 41.2368 79.617 41.2368C78.4065 41.2368 77.3555 40.9595 76.465 40.4048C75.582 39.8423 74.9219 39.104 74.4844 38.1899C74.0549 37.2759 73.8399 36.2446 73.8399 35.0962ZM75.8085 34.0415H83.004C82.918 32.9946 82.578 32.1587 81.9845 31.5337C81.3905 30.9009 80.6369 30.5845 79.7224 30.5845C78.5274 30.5845 77.6169 30.9009 76.9919 31.5337C76.3669 32.1665 75.9725 33.0024 75.8085 34.0415ZM87.2579 41.0493V29.1431H89.18V31.7329C89.5315 30.8892 90.0939 30.229 90.8669 29.7524C91.6404 29.2681 92.496 29.0259 93.4335 29.0259C93.754 29.0259 94.129 29.0649 94.5585 29.1431V31.3345C93.9415 31.1079 93.367 30.9946 92.836 30.9946C91.797 30.9946 90.9259 31.3267 90.2224 31.9907C89.5274 32.647 89.18 33.5454 89.18 34.686V41.0493H87.2579ZM95.332 35.0962C95.332 33.2993 95.8635 31.8267 96.926 30.6782C97.9885 29.5298 99.367 28.9556 101.062 28.9556C101.742 28.9556 102.394 29.0728 103.019 29.3071C103.644 29.5337 104.215 29.8735 104.73 30.3267C105.254 30.772 105.672 31.3774 105.984 32.1431C106.297 32.9009 106.457 33.7642 106.465 34.7329C106.465 35.0142 106.449 35.2954 106.418 35.5767H97.207C97.254 36.7017 97.633 37.6392 98.344 38.3892C99.0625 39.1392 100.012 39.5142 101.191 39.5142C102.035 39.5142 102.691 39.3071 103.16 38.8931C103.637 38.4712 103.996 37.8462 104.238 37.0181H106.254C106.129 37.5962 105.93 38.1314 105.656 38.6235C105.39 39.1157 105.051 39.561 104.637 39.9595C104.23 40.3579 103.722 40.6704 103.113 40.897C102.504 41.1235 101.836 41.2368 101.109 41.2368C99.8985 41.2368 98.8475 40.9595 97.957 40.4048C97.0745 39.8423 96.414 39.104 95.9765 38.1899C95.547 37.2759 95.332 36.2446 95.332 35.0962ZM97.301 34.0415H104.496C104.41 32.9946 104.07 32.1587 103.476 31.5337C102.883 30.9009 102.129 30.5845 101.215 30.5845C100.019 30.5845 99.1095 30.9009 98.4845 31.5337C97.8595 32.1665 97.465 33.0024 97.301 34.0415ZM109.992 39.479C108.984 38.3071 108.48 36.8462 108.48 35.0962C108.48 33.3462 108.984 31.8853 109.992 30.7134C111 29.5415 112.23 28.9556 113.683 28.9556C114.527 28.9556 115.312 29.186 116.039 29.647C116.765 30.1079 117.316 30.6782 117.691 31.3579V23.7642H119.613V41.0493H117.691V38.7876C117.308 39.4985 116.75 40.0845 116.015 40.5454C115.289 41.0064 114.512 41.2368 113.683 41.2368C112.23 41.2368 111 40.6509 109.992 39.479ZM111.422 31.9673C110.742 32.8267 110.402 33.8696 110.402 35.0962C110.402 36.3228 110.742 37.3657 111.422 38.2251C112.101 39.0845 112.976 39.5142 114.047 39.5142C115.039 39.5142 115.894 39.0806 116.613 38.2134C117.332 37.3384 117.691 36.2993 117.691 35.0962C117.691 33.8931 117.332 32.8579 116.613 31.9907C115.894 31.1157 115.039 30.6782 114.047 30.6782C112.976 30.6782 112.101 31.1079 111.422 31.9673ZM130.758 41.0493V23.7642H132.68V31.3579C133.055 30.6782 133.605 30.1079 134.332 29.647C135.058 29.186 135.844 28.9556 136.687 28.9556C138.14 28.9556 139.371 29.5415 140.379 30.7134C141.394 31.8853 141.902 33.3462 141.902 35.0962C141.902 36.8462 141.394 38.3071 140.379 39.479C139.371 40.6509 138.14 41.2368 136.687 41.2368C135.859 41.2368 135.078 41.0064 134.344 40.5454C133.617 40.0845 133.062 39.4985 132.68 38.7876V41.0493H130.758ZM133.758 31.9907C133.039 32.8579 132.68 33.8931 132.68 35.0962C132.68 36.2993 133.039 37.3384 133.758 38.2134C134.484 39.0806 135.344 39.5142 136.336 39.5142C137.406 39.5142 138.281 39.0845 138.961 38.2251C139.64 37.3657 139.98 36.3228 139.98 35.0962C139.98 33.8696 139.64 32.8267 138.961 31.9673C138.281 31.1079 137.406 30.6782 136.336 30.6782C135.344 30.6782 134.484 31.1157 133.758 31.9907ZM142.863 29.1431H145.125L148.722 37.8853L152.133 29.1431H154.383L147.094 46.4282H144.832L147.691 40.1587L142.863 29.1431Z" fill="white"/>
<path d="M177.19 36.5294C177.19 35.2071 176.817 34.1147 176.127 33.2236C175.408 32.3612 174.488 31.7863 173.338 31.4988C174.316 31.0101 175.034 30.3777 175.465 29.5728C175.868 28.7679 176.098 27.9055 176.098 26.9856C176.098 25.4333 175.552 24.1685 174.459 23.2199C173.367 22.2713 171.815 21.7826 169.86 21.7826H162.472V42.1924H170.895C171.872 42.1924 172.735 42.0774 173.539 41.7899C174.316 41.5025 174.977 41.1288 175.523 40.6113C176.04 40.0939 176.472 39.4902 176.759 38.8003C177.046 38.1104 177.19 37.363 177.19 36.5294ZM166.324 39.0016V33.4823H170.349C171.269 33.4823 171.987 33.7123 172.505 34.1722C173.022 34.6321 173.281 35.2933 173.281 36.1557C173.281 37.0468 172.993 37.7367 172.447 38.2542C171.901 38.7716 171.154 39.0016 170.176 39.0016H166.324ZM169.457 30.4352H166.324V25.0022H169.314C170.291 25.0022 171.039 25.2609 171.585 25.7208C172.131 26.1808 172.418 26.8419 172.418 27.6756C172.418 28.4517 172.16 29.1129 171.671 29.6303C171.154 30.1765 170.435 30.4352 169.457 30.4352ZM194.745 27.6468L200.207 42.1924H203.168L206.819 31.9012L210.527 42.1924H213.43L218.691 27.6468H215.011L212.022 37.3343L208.457 27.6468H205.065L201.673 37.3343L198.482 27.6468H194.745Z" fill="white"/>
<path d="M178.644 34.9196C178.644 36.012 178.817 37.0181 179.219 37.9379C179.593 38.8578 180.139 39.6627 180.829 40.3526C181.519 41.0425 182.352 41.56 183.33 41.9337C184.307 42.3074 185.371 42.4798 186.521 42.4798C187.67 42.4798 188.734 42.3074 189.711 41.9337C190.689 41.56 191.522 41.0425 192.212 40.3526C192.902 39.6627 193.448 38.8578 193.851 37.9379C194.225 37.0181 194.426 36.012 194.426 34.9196C194.426 33.8272 194.225 32.8211 193.851 31.9012C193.448 30.9814 192.902 30.2052 192.212 29.5153C191.522 28.8254 190.689 28.308 189.711 27.9343C188.734 27.5606 187.67 27.3593 186.521 27.3593C185.371 27.3593 184.307 27.5606 183.33 27.9343C182.352 28.308 181.519 28.8254 180.829 29.5153C180.139 30.2052 179.593 30.9814 179.219 31.9012C178.817 32.8211 178.644 33.8272 178.644 34.9196ZM182.352 34.9196C182.352 34.2872 182.439 33.7123 182.64 33.1948C182.841 32.6774 183.129 32.2175 183.502 31.8438C183.876 31.4701 184.336 31.1826 184.853 30.9814C185.371 30.7801 185.917 30.6652 186.549 30.6652C187.785 30.6652 188.792 31.0676 189.568 31.8438C190.315 32.6199 190.718 33.626 190.718 34.8908C190.718 35.5233 190.603 36.1269 190.401 36.6444C190.2 37.1618 189.913 37.6217 189.539 37.9954C189.165 38.3691 188.734 38.6566 188.217 38.8578C187.699 39.0878 187.153 39.174 186.521 39.174C185.917 39.174 185.371 39.0878 184.853 38.8866C184.336 38.6853 183.876 38.3979 183.531 38.0242C183.157 37.6505 182.87 37.1905 182.669 36.6731C182.439 36.1557 182.352 35.552 182.352 34.9196Z" fill="white" fill-opacity="0.61"/>
<path d="M226.37 42.2172H225.616V43.1509L226.529 42.954L226.37 42.2172ZM226.37 24.0762L226.529 23.3394L225.616 23.1425V24.0762H226.37ZM232.929 33.1467C232.929 37.2345 230.052 40.6519 226.211 41.4804L226.529 42.954C231.049 41.9789 234.437 37.9593 234.437 33.1467H232.929ZM226.211 24.813C230.052 25.6414 232.929 29.0589 232.929 33.1467H234.437C234.437 28.3341 231.049 24.3144 226.529 23.3394L226.211 24.813ZM225.616 24.0762V42.2172H227.124V24.0762H225.616Z" fill="#A8A8A8"/>
<path d="M226.37 32.6475C226.089 32.6475 225.861 32.8755 225.861 33.1567C225.861 33.438 226.089 33.666 226.37 33.666V32.6475ZM245.445 33.1567L242.505 30.2164L239.564 33.1567L242.505 36.0971L245.445 33.1567ZM226.37 33.666H242.505V32.6475H226.37V33.666Z" fill="#A8A8A8"/>
</svg>
